<mxfile host="app.diagrams.net" modified="2022-09-12T06:25:51.467Z" agent="5.0 (Windows NT 10.0; Win64; x64) AppleWebKit/537.36 (KHTML, like Gecko) Chrome/105.0.0.0 Safari/537.36" etag="3Z-Ej0UbEqEcE3g-Zmc5" version="20.3.0" type="gitlab">
  <diagram name="Page-1" id="03018318-947c-dd8e-b7a3-06fadd420f32">
    <mxGraphModel dx="1662" dy="729" grid="1" gridSize="10" guides="1" tooltips="1" connect="1" arrows="1" fold="1" page="1" pageScale="1" pageWidth="1100" pageHeight="850" background="none" math="0" shadow="0">
      <root>
        <mxCell id="0" />
        <mxCell id="1" parent="0" />
        <mxCell id="677b7b8949515195-1" value="" style="whiteSpace=wrap;html=1;rounded=0;shadow=0;labelBackgroundColor=none;strokeColor=#000000;strokeWidth=1;fillColor=none;fontFamily=Verdana;fontSize=12;fontColor=#000000;align=center;comic=1;" parent="1" vertex="1">
          <mxGeometry x="20" y="20" width="1060" height="730" as="geometry" />
        </mxCell>
        <mxCell id="677b7b8949515195-2" value="LOGO" style="whiteSpace=wrap;html=1;rounded=0;shadow=0;labelBackgroundColor=none;strokeWidth=1;fontFamily=Verdana;fontSize=28;align=center;comic=1;" parent="1" vertex="1">
          <mxGeometry x="460" y="70" width="125" height="50" as="geometry" />
        </mxCell>
        <mxCell id="677b7b8949515195-9" value="" style="line;strokeWidth=1;html=1;rounded=0;shadow=0;labelBackgroundColor=none;fillColor=none;fontFamily=Verdana;fontSize=14;fontColor=#000000;align=center;comic=1;" parent="1" vertex="1">
          <mxGeometry x="20" y="140" width="1060" height="10" as="geometry" />
        </mxCell>
        <mxCell id="677b7b8949515195-25" value="" style="whiteSpace=wrap;html=1;rounded=0;shadow=0;labelBackgroundColor=none;strokeWidth=1;fillColor=none;fontFamily=Verdana;fontSize=12;align=center;comic=1;" parent="1" vertex="1">
          <mxGeometry x="120" y="200" width="230" height="280" as="geometry" />
        </mxCell>
        <mxCell id="qZGlEJgJJDgkO3KdgEdF-1" value="LOGIN" style="whiteSpace=wrap;html=1;rounded=0;shadow=0;labelBackgroundColor=none;strokeWidth=1;fontFamily=Verdana;fontSize=28;align=center;comic=1;" vertex="1" parent="1">
          <mxGeometry x="810" y="70" width="110" height="50" as="geometry" />
        </mxCell>
        <mxCell id="qZGlEJgJJDgkO3KdgEdF-2" value="SIGN UP" style="whiteSpace=wrap;html=1;rounded=0;shadow=0;labelBackgroundColor=none;strokeWidth=1;fontFamily=Verdana;fontSize=28;align=center;comic=1;" vertex="1" parent="1">
          <mxGeometry x="940" y="70" width="130" height="50" as="geometry" />
        </mxCell>
        <mxCell id="qZGlEJgJJDgkO3KdgEdF-3" value="ALL NEWS" style="whiteSpace=wrap;html=1;rounded=0;shadow=0;labelBackgroundColor=none;strokeWidth=1;fontFamily=Verdana;fontSize=28;align=center;comic=1;" vertex="1" parent="1">
          <mxGeometry x="40" y="70" width="150" height="50" as="geometry" />
        </mxCell>
        <mxCell id="qZGlEJgJJDgkO3KdgEdF-4" value="" style="line;strokeWidth=1;html=1;rounded=0;shadow=0;labelBackgroundColor=none;fillColor=none;fontFamily=Verdana;fontSize=14;fontColor=#000000;align=center;comic=1;" vertex="1" parent="1">
          <mxGeometry x="20" y="680" width="1060" height="10" as="geometry" />
        </mxCell>
        <mxCell id="qZGlEJgJJDgkO3KdgEdF-6" value="&lt;div style=&quot;text-align: start;&quot;&gt;&lt;span style=&quot;background-color: initial; font-size: 14px;&quot;&gt;&lt;font face=&quot;Garamond&quot; color=&quot;#777777&quot;&gt;Agile Software Management System&lt;/font&gt;&lt;/span&gt;&lt;/div&gt;" style="text;html=1;strokeColor=none;fillColor=none;align=center;verticalAlign=middle;whiteSpace=wrap;rounded=0;" vertex="1" parent="1">
          <mxGeometry x="20" y="720" width="230" height="30" as="geometry" />
        </mxCell>
        <mxCell id="qZGlEJgJJDgkO3KdgEdF-7" value="&lt;font style=&quot;font-size: 12px;&quot;&gt;LOGO&lt;/font&gt;" style="whiteSpace=wrap;html=1;rounded=0;shadow=0;labelBackgroundColor=none;strokeWidth=1;fontFamily=Verdana;fontSize=28;align=center;comic=1;" vertex="1" parent="1">
          <mxGeometry x="30" y="690" width="50" height="30" as="geometry" />
        </mxCell>
        <mxCell id="qZGlEJgJJDgkO3KdgEdF-9" value="&lt;div style=&quot;text-align: start;&quot;&gt;&lt;span style=&quot;background-color: initial; font-size: 14px;&quot;&gt;&lt;font face=&quot;Garamond&quot; color=&quot;#777777&quot;&gt;Â© E-Pharmacist, Autumn Semester 2022!&lt;/font&gt;&lt;/span&gt;&lt;/div&gt;" style="text;html=1;strokeColor=none;fillColor=none;align=center;verticalAlign=middle;whiteSpace=wrap;rounded=0;" vertex="1" parent="1">
          <mxGeometry x="840" y="710" width="230" height="30" as="geometry" />
        </mxCell>
        <mxCell id="qZGlEJgJJDgkO3KdgEdF-10" value="&lt;font style=&quot;font-size: 18px;&quot;&gt;DETAILS&lt;/font&gt;" style="whiteSpace=wrap;html=1;rounded=0;shadow=0;labelBackgroundColor=none;strokeWidth=1;fontFamily=Verdana;fontSize=28;align=center;comic=1;" vertex="1" parent="1">
          <mxGeometry x="150" y="430" width="120" height="30" as="geometry" />
        </mxCell>
        <mxCell id="qZGlEJgJJDgkO3KdgEdF-11" value="&lt;font style=&quot;font-size: 18px;&quot;&gt;NEWS&lt;/font&gt;" style="whiteSpace=wrap;html=1;rounded=0;shadow=0;labelBackgroundColor=none;strokeWidth=1;fontFamily=Verdana;fontSize=28;align=center;comic=1;" vertex="1" parent="1">
          <mxGeometry x="220" y="270" width="120" height="30" as="geometry" />
        </mxCell>
        <mxCell id="qZGlEJgJJDgkO3KdgEdF-12" value="" style="whiteSpace=wrap;html=1;rounded=0;shadow=0;labelBackgroundColor=none;strokeWidth=1;fillColor=none;fontFamily=Verdana;fontSize=12;align=center;comic=1;" vertex="1" parent="1">
          <mxGeometry x="420" y="200" width="230" height="280" as="geometry" />
        </mxCell>
        <mxCell id="qZGlEJgJJDgkO3KdgEdF-13" value="" style="whiteSpace=wrap;html=1;rounded=0;shadow=0;labelBackgroundColor=none;strokeWidth=1;fillColor=none;fontFamily=Verdana;fontSize=12;align=center;comic=1;" vertex="1" parent="1">
          <mxGeometry x="720" y="200" width="230" height="280" as="geometry" />
        </mxCell>
        <mxCell id="qZGlEJgJJDgkO3KdgEdF-14" value="&lt;font style=&quot;font-size: 18px;&quot;&gt;NEWS&lt;/font&gt;" style="whiteSpace=wrap;html=1;rounded=0;shadow=0;labelBackgroundColor=none;strokeWidth=1;fontFamily=Verdana;fontSize=28;align=center;comic=1;" vertex="1" parent="1">
          <mxGeometry x="530" y="270" width="120" height="30" as="geometry" />
        </mxCell>
        <mxCell id="qZGlEJgJJDgkO3KdgEdF-15" value="&lt;font style=&quot;font-size: 18px;&quot;&gt;NEWS&lt;/font&gt;" style="whiteSpace=wrap;html=1;rounded=0;shadow=0;labelBackgroundColor=none;strokeWidth=1;fontFamily=Verdana;fontSize=28;align=center;comic=1;" vertex="1" parent="1">
          <mxGeometry x="820" y="270" width="120" height="30" as="geometry" />
        </mxCell>
        <mxCell id="qZGlEJgJJDgkO3KdgEdF-16" value="&lt;font style=&quot;font-size: 18px;&quot;&gt;DETAILS&lt;/font&gt;" style="whiteSpace=wrap;html=1;rounded=0;shadow=0;labelBackgroundColor=none;strokeWidth=1;fontFamily=Verdana;fontSize=28;align=center;comic=1;" vertex="1" parent="1">
          <mxGeometry x="420" y="430" width="120" height="30" as="geometry" />
        </mxCell>
        <mxCell id="qZGlEJgJJDgkO3KdgEdF-17" value="&lt;font style=&quot;font-size: 18px;&quot;&gt;DETAILS&lt;/font&gt;" style="whiteSpace=wrap;html=1;rounded=0;shadow=0;labelBackgroundColor=none;strokeWidth=1;fontFamily=Verdana;fontSize=28;align=center;comic=1;" vertex="1" parent="1">
          <mxGeometry x="730" y="430" width="120" height="30" as="geometry" />
        </mxCell>
        <mxCell id="qZGlEJgJJDgkO3KdgEdF-37" value="" style="whiteSpace=wrap;html=1;rounded=0;shadow=0;labelBackgroundColor=none;strokeColor=#000000;strokeWidth=1;fillColor=none;fontFamily=Verdana;fontSize=12;fontColor=#000000;align=center;comic=1;" vertex="1" parent="1">
          <mxGeometry x="20" y="780" width="1060" height="730" as="geometry" />
        </mxCell>
        <mxCell id="qZGlEJgJJDgkO3KdgEdF-38" value="LOGO" style="whiteSpace=wrap;html=1;rounded=0;shadow=0;labelBackgroundColor=none;strokeWidth=1;fontFamily=Verdana;fontSize=28;align=center;comic=1;" vertex="1" parent="1">
          <mxGeometry x="945" y="800" width="125" height="50" as="geometry" />
        </mxCell>
        <mxCell id="qZGlEJgJJDgkO3KdgEdF-39" value="" style="line;strokeWidth=1;html=1;rounded=0;shadow=0;labelBackgroundColor=none;fillColor=none;fontFamily=Verdana;fontSize=14;fontColor=#000000;align=center;comic=1;" vertex="1" parent="1">
          <mxGeometry x="20" y="870" width="1060" height="10" as="geometry" />
        </mxCell>
        <mxCell id="qZGlEJgJJDgkO3KdgEdF-40" value="" style="line;strokeWidth=1;html=1;rounded=0;shadow=0;labelBackgroundColor=none;fillColor=none;fontFamily=Verdana;fontSize=14;fontColor=#000000;align=center;comic=1;" vertex="1" parent="1">
          <mxGeometry x="20" y="1420" width="1060" height="10" as="geometry" />
        </mxCell>
        <mxCell id="qZGlEJgJJDgkO3KdgEdF-46" value="&lt;font style=&quot;font-size: 12px;&quot;&gt;LOGO&lt;/font&gt;" style="whiteSpace=wrap;html=1;rounded=0;shadow=0;labelBackgroundColor=none;strokeWidth=1;fontFamily=Verdana;fontSize=28;align=center;comic=1;" vertex="1" parent="1">
          <mxGeometry x="30" y="1440" width="50" height="30" as="geometry" />
        </mxCell>
        <mxCell id="qZGlEJgJJDgkO3KdgEdF-47" value="&lt;div style=&quot;text-align: start;&quot;&gt;&lt;span style=&quot;background-color: initial; font-size: 14px;&quot;&gt;&lt;font face=&quot;Garamond&quot; color=&quot;#777777&quot;&gt;Agile Software Management System&lt;/font&gt;&lt;/span&gt;&lt;/div&gt;" style="text;html=1;strokeColor=none;fillColor=none;align=center;verticalAlign=middle;whiteSpace=wrap;rounded=0;" vertex="1" parent="1">
          <mxGeometry x="10" y="1470" width="230" height="30" as="geometry" />
        </mxCell>
        <mxCell id="qZGlEJgJJDgkO3KdgEdF-48" value="&lt;div style=&quot;text-align: start;&quot;&gt;&lt;span style=&quot;background-color: initial; font-size: 14px;&quot;&gt;&lt;font face=&quot;Garamond&quot; color=&quot;#777777&quot;&gt;Â© E-Pharmacist, Autumn Semester 2022!&lt;/font&gt;&lt;/span&gt;&lt;/div&gt;" style="text;html=1;strokeColor=none;fillColor=none;align=center;verticalAlign=middle;whiteSpace=wrap;rounded=0;" vertex="1" parent="1">
          <mxGeometry x="840" y="1470" width="230" height="30" as="geometry" />
        </mxCell>
        <mxCell id="qZGlEJgJJDgkO3KdgEdF-50" value="" style="whiteSpace=wrap;html=1;rounded=0;shadow=0;labelBackgroundColor=none;strokeWidth=1;fillColor=none;fontFamily=Verdana;fontSize=12;align=center;comic=1;" vertex="1" parent="1">
          <mxGeometry x="300" y="940" width="400" height="350" as="geometry" />
        </mxCell>
        <mxCell id="qZGlEJgJJDgkO3KdgEdF-51" value="ALL NEWS" style="whiteSpace=wrap;html=1;rounded=0;shadow=0;labelBackgroundColor=none;strokeWidth=1;fontFamily=Verdana;fontSize=28;align=center;comic=1;" vertex="1" parent="1">
          <mxGeometry x="40" y="800" width="150" height="50" as="geometry" />
        </mxCell>
        <mxCell id="qZGlEJgJJDgkO3KdgEdF-52" value="&lt;font style=&quot;font-size: 18px;&quot;&gt;LOGIN&lt;/font&gt;" style="whiteSpace=wrap;html=1;rounded=0;shadow=0;labelBackgroundColor=none;strokeWidth=1;fontFamily=Verdana;fontSize=28;align=center;comic=1;fillColor=#6666FF;" vertex="1" parent="1">
          <mxGeometry x="350" y="1220" width="120" height="30" as="geometry" />
        </mxCell>
        <mxCell id="qZGlEJgJJDgkO3KdgEdF-54" value="&lt;b&gt;Email address&lt;/b&gt;" style="text;html=1;strokeColor=none;fillColor=none;align=center;verticalAlign=middle;whiteSpace=wrap;rounded=0;fontFamily=Garamond;fontSize=18;" vertex="1" parent="1">
          <mxGeometry x="320" y="990" width="120" height="30" as="geometry" />
        </mxCell>
        <mxCell id="qZGlEJgJJDgkO3KdgEdF-55" value="&lt;b&gt;Password&lt;/b&gt;" style="text;html=1;strokeColor=none;fillColor=none;align=center;verticalAlign=middle;whiteSpace=wrap;rounded=0;fontFamily=Garamond;fontSize=18;" vertex="1" parent="1">
          <mxGeometry x="300" y="1070" width="120" height="30" as="geometry" />
        </mxCell>
        <mxCell id="qZGlEJgJJDgkO3KdgEdF-56" value="" style="whiteSpace=wrap;html=1;rounded=0;shadow=0;labelBackgroundColor=none;strokeWidth=1;fontFamily=Verdana;fontSize=28;align=center;comic=1;" vertex="1" parent="1">
          <mxGeometry x="320" y="1030" width="280" height="30" as="geometry" />
        </mxCell>
        <mxCell id="qZGlEJgJJDgkO3KdgEdF-57" value="" style="whiteSpace=wrap;html=1;rounded=0;shadow=0;labelBackgroundColor=none;strokeWidth=1;fontFamily=Verdana;fontSize=28;align=center;comic=1;" vertex="1" parent="1">
          <mxGeometry x="320" y="1110" width="280" height="30" as="geometry" />
        </mxCell>
        <mxCell id="qZGlEJgJJDgkO3KdgEdF-58" value="" style="whiteSpace=wrap;html=1;rounded=0;shadow=0;labelBackgroundColor=none;strokeColor=#000000;strokeWidth=1;fillColor=none;fontFamily=Verdana;fontSize=12;fontColor=#000000;align=center;comic=1;" vertex="1" parent="1">
          <mxGeometry x="30" y="1540" width="1060" height="730" as="geometry" />
        </mxCell>
        <mxCell id="qZGlEJgJJDgkO3KdgEdF-59" value="LOGO" style="whiteSpace=wrap;html=1;rounded=0;shadow=0;labelBackgroundColor=none;strokeWidth=1;fontFamily=Verdana;fontSize=28;align=center;comic=1;" vertex="1" parent="1">
          <mxGeometry x="955" y="1560" width="125" height="50" as="geometry" />
        </mxCell>
        <mxCell id="qZGlEJgJJDgkO3KdgEdF-60" value="" style="line;strokeWidth=1;html=1;rounded=0;shadow=0;labelBackgroundColor=none;fillColor=none;fontFamily=Verdana;fontSize=14;fontColor=#000000;align=center;comic=1;" vertex="1" parent="1">
          <mxGeometry x="30" y="1630" width="1060" height="10" as="geometry" />
        </mxCell>
        <mxCell id="qZGlEJgJJDgkO3KdgEdF-61" value="&lt;font style=&quot;font-size: 12px;&quot;&gt;LOGO&lt;/font&gt;" style="whiteSpace=wrap;html=1;rounded=0;shadow=0;labelBackgroundColor=none;strokeWidth=1;fontFamily=Verdana;fontSize=28;align=center;comic=1;" vertex="1" parent="1">
          <mxGeometry x="40" y="2200" width="50" height="30" as="geometry" />
        </mxCell>
        <mxCell id="qZGlEJgJJDgkO3KdgEdF-62" value="&lt;div style=&quot;text-align: start;&quot;&gt;&lt;span style=&quot;background-color: initial; font-size: 14px;&quot;&gt;&lt;font face=&quot;Garamond&quot; color=&quot;#777777&quot;&gt;Agile Software Management System&lt;/font&gt;&lt;/span&gt;&lt;/div&gt;" style="text;html=1;strokeColor=none;fillColor=none;align=center;verticalAlign=middle;whiteSpace=wrap;rounded=0;" vertex="1" parent="1">
          <mxGeometry x="20" y="2230" width="230" height="30" as="geometry" />
        </mxCell>
        <mxCell id="qZGlEJgJJDgkO3KdgEdF-63" value="" style="whiteSpace=wrap;html=1;rounded=0;shadow=0;labelBackgroundColor=none;strokeWidth=1;fillColor=none;fontFamily=Verdana;fontSize=12;align=center;comic=1;" vertex="1" parent="1">
          <mxGeometry x="320" y="1670" width="400" height="500" as="geometry" />
        </mxCell>
        <mxCell id="qZGlEJgJJDgkO3KdgEdF-64" value="ALL NEWS" style="whiteSpace=wrap;html=1;rounded=0;shadow=0;labelBackgroundColor=none;strokeWidth=1;fontFamily=Verdana;fontSize=28;align=center;comic=1;" vertex="1" parent="1">
          <mxGeometry x="50" y="1560" width="150" height="50" as="geometry" />
        </mxCell>
        <mxCell id="qZGlEJgJJDgkO3KdgEdF-65" value="&lt;font style=&quot;font-size: 18px;&quot;&gt;SIGNUP&lt;/font&gt;" style="whiteSpace=wrap;html=1;rounded=0;shadow=0;labelBackgroundColor=none;strokeWidth=1;fontFamily=Verdana;fontSize=28;align=center;comic=1;fillColor=#6666FF;" vertex="1" parent="1">
          <mxGeometry x="345" y="2060" width="120" height="30" as="geometry" />
        </mxCell>
        <mxCell id="qZGlEJgJJDgkO3KdgEdF-66" value="&lt;b&gt;Email address&lt;/b&gt;" style="text;html=1;strokeColor=none;fillColor=none;align=center;verticalAlign=middle;whiteSpace=wrap;rounded=0;fontFamily=Garamond;fontSize=18;" vertex="1" parent="1">
          <mxGeometry x="330" y="1780" width="120" height="30" as="geometry" />
        </mxCell>
        <mxCell id="qZGlEJgJJDgkO3KdgEdF-67" value="&lt;b&gt;Password&lt;/b&gt;" style="text;html=1;strokeColor=none;fillColor=none;align=center;verticalAlign=middle;whiteSpace=wrap;rounded=0;fontFamily=Garamond;fontSize=18;" vertex="1" parent="1">
          <mxGeometry x="310" y="1840" width="120" height="30" as="geometry" />
        </mxCell>
        <mxCell id="qZGlEJgJJDgkO3KdgEdF-68" value="" style="whiteSpace=wrap;html=1;rounded=0;shadow=0;labelBackgroundColor=none;strokeWidth=1;fontFamily=Verdana;fontSize=28;align=center;comic=1;" vertex="1" parent="1">
          <mxGeometry x="335" y="1810" width="280" height="30" as="geometry" />
        </mxCell>
        <mxCell id="qZGlEJgJJDgkO3KdgEdF-69" value="" style="whiteSpace=wrap;html=1;rounded=0;shadow=0;labelBackgroundColor=none;strokeWidth=1;fontFamily=Verdana;fontSize=28;align=center;comic=1;" vertex="1" parent="1">
          <mxGeometry x="335" y="1870" width="280" height="30" as="geometry" />
        </mxCell>
        <mxCell id="qZGlEJgJJDgkO3KdgEdF-70" value="&lt;b&gt;LOG INTO YOUR ACCOUNT&lt;/b&gt;" style="text;html=1;strokeColor=none;fillColor=none;align=center;verticalAlign=middle;whiteSpace=wrap;rounded=0;fontFamily=Garamond;fontSize=18;" vertex="1" parent="1">
          <mxGeometry x="360" y="960" width="270" height="30" as="geometry" />
        </mxCell>
        <mxCell id="qZGlEJgJJDgkO3KdgEdF-71" value="&lt;b&gt;CREATE A NEW ACCOUNT&lt;/b&gt;" style="text;html=1;strokeColor=none;fillColor=none;align=center;verticalAlign=middle;whiteSpace=wrap;rounded=0;fontFamily=Garamond;fontSize=18;" vertex="1" parent="1">
          <mxGeometry x="345" y="1690" width="270" height="30" as="geometry" />
        </mxCell>
        <mxCell id="qZGlEJgJJDgkO3KdgEdF-72" value="" style="line;strokeWidth=1;html=1;rounded=0;shadow=0;labelBackgroundColor=none;fillColor=none;fontFamily=Verdana;fontSize=14;fontColor=#000000;align=center;comic=1;" vertex="1" parent="1">
          <mxGeometry x="30" y="2180" width="1060" height="10" as="geometry" />
        </mxCell>
        <mxCell id="qZGlEJgJJDgkO3KdgEdF-73" value="&lt;div style=&quot;text-align: start;&quot;&gt;&lt;span style=&quot;background-color: initial; font-size: 14px;&quot;&gt;&lt;font face=&quot;Garamond&quot; color=&quot;#777777&quot;&gt;Â© E-Pharmacist, Autumn Semester 2022!&lt;/font&gt;&lt;/span&gt;&lt;/div&gt;" style="text;html=1;strokeColor=none;fillColor=none;align=center;verticalAlign=middle;whiteSpace=wrap;rounded=0;" vertex="1" parent="1">
          <mxGeometry x="840" y="2220" width="230" height="30" as="geometry" />
        </mxCell>
        <mxCell id="qZGlEJgJJDgkO3KdgEdF-74" value="&lt;b&gt;Name&lt;/b&gt;" style="text;html=1;strokeColor=none;fillColor=none;align=center;verticalAlign=middle;whiteSpace=wrap;rounded=0;fontFamily=Garamond;fontSize=18;" vertex="1" parent="1">
          <mxGeometry x="300" y="1720" width="120" height="30" as="geometry" />
        </mxCell>
        <mxCell id="qZGlEJgJJDgkO3KdgEdF-75" value="" style="whiteSpace=wrap;html=1;rounded=0;shadow=0;labelBackgroundColor=none;strokeWidth=1;fontFamily=Verdana;fontSize=28;align=center;comic=1;" vertex="1" parent="1">
          <mxGeometry x="335" y="1750" width="280" height="30" as="geometry" />
        </mxCell>
        <mxCell id="qZGlEJgJJDgkO3KdgEdF-76" value="&lt;b&gt;Confirm Password&lt;/b&gt;" style="text;html=1;strokeColor=none;fillColor=none;align=center;verticalAlign=middle;whiteSpace=wrap;rounded=0;fontFamily=Garamond;fontSize=18;" vertex="1" parent="1">
          <mxGeometry x="310" y="1910" width="190" height="30" as="geometry" />
        </mxCell>
        <mxCell id="qZGlEJgJJDgkO3KdgEdF-77" value="" style="whiteSpace=wrap;html=1;rounded=0;shadow=0;labelBackgroundColor=none;strokeWidth=1;fontFamily=Verdana;fontSize=28;align=center;comic=1;" vertex="1" parent="1">
          <mxGeometry x="335" y="1940" width="280" height="30" as="geometry" />
        </mxCell>
      </root>
    </mxGraphModel>
  </diagram>
</mxfile>
